<svg width="48" height="45" viewBox="0 0 48 45" fill="none" xmlns="http://www.w3.org/2000/svg">
<path d="M24.0001 31.8752C23.4895 31.8728 22.9859 31.7639 22.5258 31.5563C22.0657 31.3488 21.6607 31.0478 21.3401 30.6752L12.9201 21.1127C12.4281 20.5371 12.1184 19.8434 12.0265 19.1107C11.9346 18.3781 12.064 17.636 12.4001 16.969C12.6726 16.3893 13.1174 15.8954 13.6813 15.5463C14.2452 15.1972 14.9044 15.0076 15.5801 15.0002H32.4201C33.0958 15.0076 33.755 15.1972 34.3188 15.5463C34.8827 15.8954 35.3275 16.3893 35.6001 16.969C35.9362 17.636 36.0656 18.3781 35.9737 19.1107C35.8817 19.8434 35.5721 20.5371 35.0801 21.1127L26.6601 30.6752C26.3395 31.0478 25.9345 31.3488 25.4744 31.5563C25.0143 31.7639 24.5107 31.8728 24.0001 31.8752Z" fill="#C3C3C3"/>
</svg>
